<svg viewBox="0 0 194.62 194.62" xmlns="http://www.w3.org/2000/svg" xmlns:xlink="http://www.w3.org/1999/xlink"><radialGradient id="a" cx="97.31" cy="97.31" gradientUnits="userSpaceOnUse" r="97.31"><stop offset="0" stop-color="#2e4072"/><stop offset=".32" stop-color="#2b3d6e"/><stop offset=".59" stop-color="#233564"/><stop offset=".84" stop-color="#152852"/><stop offset=".99" stop-color="#0a1d44"/></radialGradient><linearGradient id="b" gradientUnits="userSpaceOnUse" x1="69.08" x2="161.61" y1="83.37" y2="83.37"><stop offset="0" stop-color="#fff"/><stop offset="0" stop-color="#e5f6fb"/><stop offset=".02" stop-color="#c3eaf6"/><stop offset=".04" stop-color="#a5dff2"/><stop offset=".05" stop-color="#8dd7ee"/><stop offset=".07" stop-color="#7ad0ec"/><stop offset=".09" stop-color="#6dccea"/><stop offset=".12" stop-color="#66c9e9"/><stop offset=".18" stop-color="#64c9e9"/><stop offset=".25" stop-color="#5ab8df"/><stop offset=".49" stop-color="#3f8dc6"/><stop offset=".7" stop-color="#2c6eb4"/><stop offset=".88" stop-color="#215aa9"/><stop offset="1" stop-color="#1d54a6"/></linearGradient><linearGradient id="c" x1="22.17" x2="152.04" xlink:href="#b" y1="116.77" y2="139.52"/><radialGradient id="d" cx="114.87" cy="83.89" fx="108.36" gradientUnits="userSpaceOnUse" r="39.89"><stop offset="0" stop-color="#213062"/><stop offset=".42" stop-color="#1f2e5e"/><stop offset=".77" stop-color="#192854"/><stop offset="1" stop-color="#142249"/></radialGradient><linearGradient id="e" x1="20.94" x2="150.73" xlink:href="#b" y1="123.57" y2="146.3"/><linearGradient id="f" gradientUnits="userSpaceOnUse" x1="25.63" x2="147.96" y1="139.13" y2="139.13"><stop offset="0" stop-color="#fff"/><stop offset=".05" stop-color="#f3fafd"/><stop offset=".13" stop-color="#d4f0f8"/><stop offset=".24" stop-color="#a2def1"/><stop offset=".37" stop-color="#64c9e9"/><stop offset=".71" stop-color="#5fbfe3"/><stop offset=".81" stop-color="#5dbce1"/><stop offset=".86" stop-color="#59b5dd"/><stop offset=".9" stop-color="#50a8d6"/><stop offset=".94" stop-color="#4595cb"/><stop offset=".96" stop-color="#367dbd"/><stop offset=".99" stop-color="#2460ad"/><stop offset="1" stop-color="#1d54a6"/></linearGradient><linearGradient id="g" gradientUnits="userSpaceOnUse" x1="59.46" x2="90.04" y1="131.49" y2="137.74"><stop offset=".01" stop-color="#3270b8"/><stop offset="1" stop-color="#174996"/></linearGradient><filter id="h" filterUnits="userSpaceOnUse" height="50.4" width="122.64" x="35.77" y="50"><feOffset dx="0" dy="0"/><feGaussianBlur result="blur" stdDeviation="3"/><feFlood flood-color="#231f20" flood-opacity=".9"/><feComposite in2="blur" operator="in"/><feComposite in="SourceGraphic"/></filter><filter id="i" filterUnits="userSpaceOnUse" height="63.84" width="118.08" x="40.57" y="89.36"><feOffset dx="0" dy="0"/><feGaussianBlur result="blur-2" stdDeviation="3"/><feFlood flood-color="#231f20" flood-opacity=".9"/><feComposite in2="blur-2" operator="in"/><feComposite in="SourceGraphic"/></filter><circle cx="97.31" cy="97.31" fill="url(#a)" r="97.31"/><circle cx="97.31" cy="97.31" fill="none" r="89.82" stroke="#fff" stroke-miterlimit="10" stroke-width="2"/><g opacity=".5"><path d="m144.45 126.46-71.54-24.71c-2.51-.87-4.2-3.77-3.77-6.49l7.98-51.27c.45-2.87 2.92-4.59 5.53-3.85l74.51 21.33c2.99.86 4.94 4.04 4.33 7.09l-10.81 54.48c-.57 2.89-3.37 4.41-6.24 3.42z" fill="url(#b)"/><path d="m103.89 159.22-75.81-30.77c-2.14-.87-2.48-5.07-.56-6.17l37.27-18.5c1.69-.97 4.75-1.14 6.85-.4l73.65 23.61c2.5.89 1.86 6.35.25 7.51l-33.62 24.21c-1.85 1.33-5.46 1.56-8.04.51z" fill="#1c4583"/><path d="m103.54 155.2-75.44-30.17c-2.11-.85-2.26-2.38-.35-3.43l36.74-20.14c1.68-.92 4.7-1.08 6.78-.36l73.53 25.54c2.5.87 3.26 2.47 1.68 3.58l-34.92 24.52c-1.83 1.29-5.43 1.49-8.02.46z" fill="url(#c)"/><path d="m141.43 121.2-64.64-22.33c-3.58-1.09-4-2.18-3.43-5.61l6.81-43.72c.6-3.64 1.36-4.16 4.93-3.21l67.22 19.24c4.08 1.19 4.82 1.9 3.98 6.14l-9.26 46.65c-.7 3.81-1.74 4.08-5.61 2.85z" fill="url(#d)"/><path d="m26.76 122.4s-1.75 1.4 2.27 3.01l16.86 6.74 25.28 10.11 31.94 12.77s1.29.97 4.54.82 24.91-15.86 24.91-15.86l13.91-9.77s1.01-.72.64-1.97" fill="url(#e)" stroke="url(#f)" stroke-linecap="round" stroke-miterlimit="10" stroke-width="1.5"/><g fill="#253a75"><path d="m54.67 112.5 3.15-1.76c.5-.11.83-.14 1.28-.02l10.19 3.75c.22.19.18.36-.1.56-.56.39-2.16 1.34-2.86 1.65-.31.14-.66.2-1.04.14l-10.47-3.83c-.36-.13-.18-.3-.15-.49z"/><path d="m59.96 109.54 3.15-1.76c.44-.08.72-.12 1.13 0l7.61 2.76c.12.14.17.33-.01.48-.43.34-2.16 1.31-2.8 1.62-.43.21-.85.27-1.37.13l-7.48-2.72c-.33-.16-.31-.29-.23-.5z"/><path d="m65.22 106.6 3.03-1.69c.37-.04.6-.14.97-.05.6.15 2.98.99 3.43 1.22.38.19.16.45-.16.66-.51.34-1.82 1.09-2.42 1.35-.51.22-.86.36-1.51.18-.73-.2-2.5-.84-3.09-1.11-.37-.17-.38-.32-.25-.55z"/><path d="m101.98 135.58c-.13.01-.28 0-.41-.01l-36.02-13.41c-.23-.12-.26-.35-.06-.5.39-.31 2.54-1.58 3.09-1.82.45-.2 1.09-.14 1.49.01l35.17 12.98c.44.23.51.46.18.75-.46.4-1.93 1.36-2.59 1.72-.21.11-.56.26-.85.29z"/><path d="m123.55 124.4c.21-.01.53.05.7.11l13.73 4.89c.25.17.24.35.05.53-.65.63-1.96 1.28-2.73 1.91-.43.15-.96.14-1.37 0l-13.52-4.88c-.25-.15-.41-.31-.2-.51.6-.56 1.55-1.05 2.31-1.55.27-.17.4-.45 1.01-.49z"/><path d="m115.41 131.36 12.95 4.75c.2.14.27.39.11.55-.28.28-2.49 1.83-2.92 2.01-.29.12-.77.18-1.09.06l-13.05-4.83c-.15-.14-.19-.32-.03-.47.41-.39 2.28-1.62 2.9-1.95.35-.19.68-.18 1.13-.11z"/><path d="m124.03 129.28 9.34 3.39c.21.15.21.34.05.5-.4.4-1.99 1.48-2.6 1.84-.41.24-.84.31-1.41.16-2.74-1.15-6.32-2.09-8.94-3.24-.43-.19-.54-.44-.25-.7.44-.4 1.89-1.37 2.52-1.72.37-.21.73-.3 1.29-.23z"/><path d="m53.37 113.82 6.43 2.36c.52.24.45.42.01.72-.58.39-1.95 1.19-2.67 1.53-.57.27-1.02.31-1.62.13-2.1-.63-4.01-1.62-6.09-2.27-.36-.17-.53-.37-.19-.61.56-.39 2.43-1.45 3.15-1.77.27-.12.65-.13.97-.09z"/><path d="m123.58 139.8c.03.1-.02.21-.12.29-.48.44-2.18 1.63-2.86 2.01-.4.22-.85.22-1.32.08-2.44-.74-4.75-1.9-7.17-2.67-.4-.16-.34-.45-.1-.67.48-.42 2.04-1.48 2.7-1.84.54-.29 1.05-.26 1.67-.07 2.34.71 4.68 1.81 6.96 2.61.08.08.21.17.23.26z"/><path d="m113.52 136.08c.02.09-.1.25-.2.33-.51.44-2.13 1.55-2.83 1.92-.4.22-.85.22-1.31.08-1.32-.4-3.81-1.33-4.95-1.84-.43-.2-.48-.42-.16-.69.51-.43 1.98-1.4 2.66-1.77.54-.3.98-.34 1.65-.14.88.26 4.37 1.52 4.91 1.86.07.05.22.2.23.26z"/><path d="m67.4 119.07c.01.09-.05.18-.16.26-.53.39-2.34 1.45-3.04 1.78-.41.2-.84.2-1.28.07-1.22-.37-3.51-1.22-4.55-1.69-.4-.18-.41-.38-.06-.63.54-.39 2.09-1.27 2.79-1.61.54-.26.99-.3 1.61-.12.76.22 4.06 1.41 4.5 1.7.07.05.18.18.19.24z"/><path d="m75.68 111.91c.45.15 2.12.75 2.24.9.11.14-.08.34-.25.47-.5.36-2.01 1.26-2.66 1.56-.58.27-1.1.2-1.67.03-.76-.23-2.25-.76-2.88-1.05-.48-.22-.53-.44-.11-.73s2.48-1.49 2.94-1.64c.77-.25 1.76.25 2.39.46z"/><path d="m75.04 106.92c1.01.41 2.47.77 3.41 1.2.37.17.33.41.04.62-.51.37-1.89 1.16-2.56 1.48-.47.23-.92.3-1.49.14-.75-.21-2.6-.86-3.2-1.15-.37-.17-.33-.41-.02-.62.51-.36 1.98-1.2 2.63-1.5.35-.16.74-.22 1.2-.17z"/><path d="m80.15 113.56c1.02.43 2.63.81 3.57 1.27.33.16.29.39.04.58-.51.38-1.97 1.24-2.65 1.58-.48.24-.93.31-1.52.15s-3.02-1.03-3.36-1.25c-.3-.19-.17-.43.11-.63.5-.37 1.95-1.22 2.6-1.53.36-.17.75-.23 1.22-.18z"/><path d="m81.05 112.6c-.18 0-.45-.04-.6-.08-.78-.21-2.68-.9-3.31-1.19-.42-.19-.3-.44.03-.67.54-.38 1.76-1.08 2.43-1.41.48-.24.94-.34 1.54-.18.8.22 2.47.82 3.16 1.12.43.19.45.41.12.66s-2.44 1.51-2.86 1.65c-.06.02-.43.09-.5.1z"/><path d="m117.3 126.98c1.14.46 2.76.87 3.81 1.35.46.21.37.48.06.74-.51.42-1.69 1.22-2.35 1.59-.46.26-.96.38-1.6.21-.82-.23-2.65-.9-3.36-1.22-.5-.22-.64-.45-.27-.76.48-.4 1.97-1.4 2.61-1.74.3-.16.67-.22 1.09-.18z"/><path d="m77.24 117.59c.18 0 .46.04.61.08.79.22 2.73.93 3.38 1.23.43.2.31.46-.02.7-.54.39-1.75 1.12-2.43 1.47-.53.27-.98.42-1.67.23-.83-.23-2.54-.87-3.25-1.19-.44-.2-.45-.43-.1-.7s2.54-1.58 2.97-1.73c.06-.02.44-.1.51-.1z"/><path d="m96.2 124.36c.56.12 3.06 1.05 3.57 1.29.55.26.45.49.04.8-.56.42-1.7 1.15-2.39 1.53-.43.24-.93.4-1.53.23-.8-.23-2.86-.98-3.51-1.29-.39-.19-.37-.45-.07-.69.5-.4 1.99-1.34 2.65-1.67.31-.16.83-.28 1.24-.19z"/><path d="m102.58 126.69c.63.14 2.98 1.02 3.53 1.27.35.16.5.37.3.61-.24.28-2.24 1.56-2.74 1.83-.44.23-.86.31-1.41.16-.77-.22-3.02-1.03-3.64-1.34-.38-.19-.22-.5.06-.71.51-.4 1.93-1.32 2.58-1.65.36-.18.86-.27 1.32-.17z"/><path d="m117.72 122.14c.69.16 2.93.97 3.52 1.24.34.15.47.3.33.52-.13.2-2.04 1.5-2.5 1.76-.41.23-.91.39-1.5.23-.84-.23-2.74-.92-3.47-1.24-.44-.19-.57-.4-.25-.67.44-.37 2.04-1.42 2.64-1.72.34-.17.81-.22 1.23-.12z"/><path d="m89.96 122.1c.63.14 3.07 1.04 3.61 1.3.47.22.29.43 0 .69s-1.87 1.26-2.39 1.54-.98.44-1.68.24c-.8-.23-2.74-.94-3.4-1.25-.33-.16-.39-.43-.12-.64.47-.36 2.25-1.48 2.87-1.76.3-.14.75-.19 1.11-.11z"/><path d="m104.77 131.33c-.08-.39.93-.8 1.39-1.1.58-.39 1.02-.83 1.8-1.17.35-.15.88-.07 1.23.02.82.23 2.47.84 3.18 1.16.53.23.74.46.35.79s-2.37 1.67-2.86 1.87c-.33.13-.72.16-1.08.05-.9-.26-2.9-1-3.68-1.35-.17-.08-.31-.15-.33-.28z"/><path d="m110.92 124.68c1.11.47 2.83.88 3.85 1.37.44.21.19.47-.07.69-.35.31-1.84 1.29-2.36 1.56-.57.3-.85.41-1.64.19s-2.46-.84-3.16-1.15c-.44-.19-.75-.45-.4-.74.49-.41 2.03-1.41 2.7-1.75.31-.16.65-.25 1.09-.18z"/><path d="m93.03 113.32c.66.15 2.65.88 3.22 1.13.39.17.61.41.29.66-.49.38-2.09 1.37-2.76 1.69-.58.28-1.04.12-1.57-.03-.68-.2-2.4-.8-2.92-1.05-.32-.15-.6-.35-.31-.58.41-.32 2.34-1.49 2.9-1.74.29-.13.82-.16 1.16-.08z"/><path d="m104.91 122.46c.72.17 2.63.88 3.26 1.16.42.19.65.42.32.7-.49.4-2.1 1.45-2.76 1.79-.37.19-.86.2-1.3.09-.71-.41-3.28-1.01-3.68-1.42-.15-.15-.12-.31.06-.45.45-.36 2.24-1.52 2.84-1.8.34-.16.89-.15 1.26-.05z"/><path d="m101.11 119.79c0-.09.1-.22.2-.3.53-.42 1.97-1.31 2.67-1.68.35-.18.76-.25 1.22-.13.85.23 2.71.9 3.45 1.23.37.16.5.35.22.58-.5.41-2.04 1.38-2.72 1.74-.38.2-.83.23-1.31.1-.54-.15-3.26-1.11-3.55-1.3-.04-.03-.18-.2-.18-.24z"/><path d="m111.35 119.88c.63.14 3.09 1.03 3.64 1.28.33.15.4.36.16.56-.52.43-1.99 1.38-2.7 1.76-.41.22-.79.25-1.32.1-.84-.23-2.63-.88-3.35-1.2-.43-.19-.56-.39-.23-.66.47-.38 2.02-1.38 2.65-1.7.31-.16.74-.23 1.15-.14z"/><path d="m86.94 111.15c.6.13 2.81.93 3.33 1.17.36.16.5.4.2.63-.37.28-2.43 1.54-2.91 1.71-.32.12-.7.14-1.03.05-.79-.22-2.78-.93-3.43-1.23-.31-.15-.36-.35-.1-.54.52-.38 2.07-1.31 2.74-1.65.32-.16.78-.23 1.19-.14z"/><path d="m92.35 117.95c.6.13 2.97 1 3.49 1.24.39.18.43.39.14.63-.5.4-1.99 1.31-2.68 1.67-.42.22-.85.29-1.38.14-.83-.23-2.65-.9-3.36-1.22-.37-.16-.48-.36-.18-.59.47-.36 2.32-1.51 2.94-1.79.27-.13.72-.14 1.04-.07z"/><path d="m102.4 121.75c.01.08-.1.23-.2.31-.54.43-2 1.34-2.72 1.73-.36.19-.78.27-1.25.13-.86-.24-2.73-.93-3.48-1.26-.37-.16-.49-.36-.2-.6.38-.3 2.51-1.64 2.99-1.83.39-.15.81-.1 1.2 0 .64.18 3.04 1.03 3.44 1.28.07.04.21.19.21.24z"/><path d="m83.73 119.82c1.08.45 2.64.84 3.64 1.31.32.15.37.36.11.57-.56.43-2.12 1.38-2.87 1.77-.47.24-.87.23-1.41.08-.8-.23-2.45-.84-3.13-1.15-.41-.18-.61-.42-.26-.69.52-.4 2.14-1.37 2.82-1.71.32-.16.66-.24 1.1-.17z"/><path d="m86.18 115.73c1.04.43 2.56.8 3.53 1.26.38.18.42.39.13.62-.49.38-2.1 1.36-2.76 1.68-.35.17-.91.22-1.32.1-.58-.16-3.14-1.08-3.48-1.29-.23-.15-.24-.33-.02-.5.53-.4 2.2-1.41 2.9-1.74.29-.14.65-.18 1.02-.13z"/><path d="m98.9 115.46c1.08.44 2.63.82 3.64 1.28.32.15.38.35.13.55-.49.39-2.08 1.38-2.74 1.71-.4.2-.92.2-1.38.07-.79-.22-2.45-.82-3.12-1.12-.41-.18-.62-.41-.29-.67.5-.39 2.09-1.37 2.75-1.7.29-.14.64-.18 1.01-.13z"/><path d="m71.61 115.41c1.05.44 2.59.82 3.56 1.28.31.15.35.36.09.55-.52.39-2.21 1.39-2.91 1.72-.42.2-.95.2-1.4.07-.78-.22-2.31-.8-2.99-1.1-.42-.19-.7-.41-.31-.7.53-.39 2.23-1.38 2.92-1.7.3-.14.66-.18 1.03-.13z"/></g><path d="m80.71 142.53-21.27-8.63c-.84-.34-.89-1.51-.09-1.93l9.05-4.64c.84-.43 1.83-.49 2.72-.16l20.93 7.75c.74.27.85 1.28.18 1.7l-8.87 5.67c-.79.51-1.78.6-2.66.24z" fill="url(#g)"/><path d="m102.04 80.69c-.27-.03-.54-.09-.8-.16l1.75 20.31 3.07-19.01c-.25-.13-.41-.4-.37-.65.05-.3.35-.46.67-.36s.55.43.5.73c-.04.25-.26.4-.53.37l-3.08 19 7.84-17.28c-.28-.1-.54-.22-.78-.34-1.61-.88-2.62-2.71-2.33-4.44.32-1.99 2.26-3.1 4.32-2.46l1.24.39 1.25.39c2.06.65 3.46 2.8 3.11 4.8-.3 1.73-1.8 2.77-3.53 2.6-.26-.04-.53-.09-.81-.16l1.54 20.3 3.31-19c-.25-.13-.4-.4-.36-.65.05-.3.36-.46.68-.36s.54.43.49.73c-.04.25-.27.4-.54.37l-3.32 18.99 8.12-17.26c-.27-.1-.52-.21-.78-.34-1.62-.89-2.62-2.71-2.32-4.45.35-1.99 2.32-3.1 4.4-2.45l5.02 1.57.45-2.44.75-4.04 1.27.39.7-.68-2.24-.7c.46-.09 1.98-.46 1.75-1.68 0 0-.12-.35-.7-1.33-.58-.99-.38-1.69-.33-1.78l.08-.21s-.5-.13-.93 0c-.31.1-.48.16-.62.57-.13.73.22 1.25.48 1.61.4.61.84 1.28.79 1.84-.04.45-.44.83-.59.96l-.23-.07c.24-.11.78-.56.58-1.26-.17-.79-.8-1.38-1.05-1.88-.24-.51-.19-1.03-.19-1.03s-.91.43-.93 1.07c-.02.63.9 1.21 1.21 1.56.31.34.44.59.48.87.05.22-.11.53-.17.65l-.27-.08c.07-.07.2-.22.22-.35.03-.18.03-.38-.24-.72-.2-.33-.49-.48-1.03-.94-.39-.29-.44-.9-.41-.95 0 0-.42.25-.38.65.03.38.36.64.98 1.14.51.42.73.97.8 1.16l-2.17-.67-.15.85 1.96.61c0 .13-.02.27-.05.4-.18 1-.77 1.78-1.57 2.24-.79.45-1.8.57-2.83.26s0 0 0 0h-.04c-2.08-.66-3.48-2.83-3.12-4.85l.02-.1s.02-.06.02-.09.02-.06.02-.09.07-.35.07-.35c1.12-.14 2.02-.93 2.23-2.12.29-1.62-.83-3.35-2.48-3.86s-3.22.39-3.5 2.01c-.2 1.17.33 2.39 1.26 3.17l-.07.38s0 .06 0 .1l-.02.09-.02.1c-.35 2.03-2.32 3.14-4.38 2.49l-1.25-.4-1.25-.38c-2.07-.65-3.47-2.81-3.14-4.83l.02-.1s.02-.06.02-.09.01-.06.02-.09.06-.39.06-.39c1.08-.15 1.95-.94 2.14-2.11.27-1.62-.86-3.35-2.5-3.86s-3.19.4-3.44 2.01c-.19 1.19.37 2.43 1.32 3.21l-.05.35s0 .06-.01.09l-.02.09s0 .07-.01.1c-.33 2.03-2.26 3.14-4.32 2.5h-.04c-1.01-.34-1.87-1.04-2.43-1.91s-.83-1.91-.68-2.91c.02-.13.05-.26.08-.38l1.93.6.13-.85-2.12-.66c.11-.13.47-.5 1.06-.57.72-.09 1.09-.13 1.23-.45.15-.33-.15-.8-.15-.8.02.06-.22.58-.65.61-.62.1-.92.07-1.2.24-.35.14-.41.32-.45.5-.02.13.05.34.09.45l-.26-.08c-.02-.15-.05-.51.05-.68.13-.22.32-.37.7-.49.38-.13 1.38-.11 1.56-.69s-.5-1.5-.5-1.5-.12.5-.49.81-1.13.47-1.52 1.07c-.4.51-.06 1.22.12 1.46l-.22-.07c-.09-.2-.33-.78-.22-1.2.13-.53.73-.87 1.28-1.19.33-.17.81-.43.93-1.16 0-.45-.13-.6-.37-.87-.33-.36-.83-.54-.83-.54l.02.24c0 .1-.03.84-.86 1.39-.82.54-1.03.79-1.03.79-.59.95.63 2.17 1.01 2.52l-2.19-.68.41 1.02 1.24.39-.61 4.04-.37 2.44 4.94 1.55c2.05.64 3.45 2.8 3.13 4.79-.28 1.73-1.75 2.77-3.46 2.61" fill="#4e6cb3"/></g><g fill="#fff"><g filter="url(#h)"><path d="m98.42 59.13c-10.04 0-17.39 6.78-17.39 16.12s7.35 16.12 17.39 16.12 17.39-6.78 17.39-16.12-7.35-16.12-17.39-16.12zm0 23.82c-3.83 0-6.91-2.91-6.91-7.71s3.08-7.71 6.91-7.71 6.91 2.91 6.91 7.71-3.08 7.71-6.91 7.71z"/><path d="m81.33 59.84h-11.32l-10.12 11.18v-11.18h-10.22-4.73l4.73 4.73v26.09h10.22v-7.62l2.33-2.6 7.71 10.22h12.02l-12.95-17.26z"/><path d="m139.14 59.84h10.22v6.53h-10.22z"/><path d="m119.33 59.84h10.39v6.53h-10.39z"/><path d="m139.14 76.48c0 4.71-1.81 6.47-4.71 6.47s-4.71-1.76-4.71-6.47v-7.6h-10.39v7.91c0 9.25 5.55 14.58 15.02 14.58s15.02-5.33 15.02-14.58v-7.91h-10.22v7.6z"/></g><g filter="url(#i)"><path d="m137.04 98.4v4.16h2.08v4.16h2.08v-4.16h2.08v-4.16h6.24v18.71h-4.16v-8.31h-2.08v4.16h-2.08v4.15h-2.08v-4.15h-2.08v-4.16h-2.08v8.31h-4.16v-18.71z"/><path d="m101.67 98.4v4.16h-2.08v2.08h-2.08v2.08h-2.08v2.08h-2.08v2.08h-2.08v2.08h10.4v4.15h-16.65v-6.23h2.08v-2.08h2.09v-2.08h2.08v-2.08h2.08v-2.08h-8.33v-4.16z"/><path d="m149.52 142.06h-2.08v2.08h-10.4v-2.08h-2.08v-16.63h4.16v14.55h6.24v-14.55h4.16z"/><path d="m76.7 98.4v4.16h2.08v4.16h2.08v4.16h2.08v6.24h-4.16v-4.16h-8.32v4.16h-4.16v-6.24h2.08v-4.16h2.08v-4.16h2.08v-4.16zm0 8.32h-4.16v2.08h4.16z"/><path d="m53.81 98.4v4.16h2.09v2.08h4.16v-2.08h2.08v-4.16h4.16v6.24h-2.08v2.08h-2.08v2.08h-2.08v8.31h-4.16v-8.31h-2.09v-2.08h-2.08v-2.08h-2.08v-6.24z"/><path d="m114.15 98.4v14.56h8.33v4.15h-12.49v-18.71z"/><path d="m103.75 98.4h4.16v18.71h-4.16z"/><path d="m124.56 98.4h4.16v18.71h-4.16z"/><path d="m130.8 125.43v2.08h2.08v6.24h-2.08v2.08h2.08v6.24h-2.08v2.08h-12.48v-18.71h12.48zm-8.32 4.16v2.08h6.24v-2.08zm0 6.24v4.16h6.24v-4.16z"/><path d="m53.81 125.43v8.32h2.09v-2.08h2.08v-2.08h2.08v-2.08h2.08v-2.08h4.16v4.16h-2.08v2.08h-2.08v2.08h-2.08v2.08h2.08v2.07h2.08v2.08h2.08v4.16h-4.16v-2.08h-2.08v-2.08h-2.08v-2.08h-4.17v6.24h-4.16v-18.71z"/><path d="m72.54 125.43v14.55h6.24v-14.55h4.16v16.63h-2.08v2.08h-10.4v-2.08h-2.08v-16.63z"/><path d="m105.83 125.43v14.55h6.24v-14.55h4.16v16.63h-2.08v2.08h-10.4v-2.08h-2.08v-16.63z"/><path d="m89.19 125.43v14.55h10.4v4.16h-14.57v-18.71z"/><path d="m103.75 119.19h4.16v4.16h-4.16z"/><path d="m109.99 119.19h4.16v4.16h-4.16z"/><path d="m137.04 119.19h4.16v4.16h-4.16z"/><path d="m143.28 119.19h4.16v4.16h-4.16z"/></g></g></svg>